<?xml version="1.0" encoding="utf-8"?>
<!-- Generator: Adobe Illustrator 21.0.0, SVG Export Plug-In . SVG Version: 6.00 Build 0)  -->
<svg version="1.1" id="Layer_2" xmlns="http://www.w3.org/2000/svg" xmlns:xlink="http://www.w3.org/1999/xlink" x="0px" y="0px"
	 viewBox="0 0 2500 2500" style="enable-background:new 0 0 2500 2500;" xml:space="preserve">
<style type="text/css">
	.st0{fill:url(#XMLID_2_);}
	.st1{fill:#FFFFFF;}
</style>
<g>
	<linearGradient id="XMLID_2_" gradientUnits="userSpaceOnUse" x1="7.6108" y1="1241.3677" x2="2485.114" y2="1241.3677">
		<stop  offset="0" style="stop-color:#2DAAE1"/>
		<stop  offset="0.5051" style="stop-color:#2DAAE1"/>
		<stop  offset="1" style="stop-color:#2DAAE1"/>
	</linearGradient>
	<circle id="XMLID_13_" class="st0" cx="1246.4" cy="1241.4" r="1238.8"/>
	<path id="XMLID_34_" class="st1" d="M610.1,1680.9c44.1-0.5,88.2,2.6,132.3-3.2c102.4-13.4,194.9-50.5,281-114.7
		c-129.8-12.2-217.9-75.3-265.7-197.1c31,4,59.1,5.9,87.3,2.4c6.6-0.8,13.2-2,19.7-3.2c2.8-0.5,6.5-0.4,6.4-4.6
		c-0.1-3.8-3.6-4.4-6.4-5.3c-5.7-1.9-11.6-3.6-17.3-5.6c-109.1-38.2-185.1-140.8-189.4-255.8c-0.1-3.6,0-7.1,0-12.6
		c21,8.7,39.8,18.3,60.2,23.6c19.9,5.1,39.9,10.1,61.9,9.2c-3-8.1-10.3-10.8-15.5-15.1c-102-84.6-133-222.7-76.1-339.9
		c10.2-21.1,9.9-20.8,24.8-3.9c133.6,150.2,299.6,241,498.5,270.8c19.7,3,39.7,4.3,59.5,6.9c12.9,1.7,16.4-1.9,14.1-15.7
		c-20.7-124.1,39.8-242.9,151.8-299.4c107.7-54.3,239.8-35.4,327.4,47.4c8.4,8,15.6,10.6,27.2,7.7c28.3-6.9,56-15.2,83.2-25.5
		c27.2-10.3,52.9-23.6,82-39c-22.2,66.1-62.5,113.8-116,152.2c52.2-4.4,101.3-19.3,153.2-40.3c-16,26.7-33.4,46.5-51,66
		c-22.8,25.2-47.6,48.4-75.2,68.3c-10.4,7.4-14.4,15.2-14.3,28.3c1.3,237.6-83.6,440.1-253.1,605.7
		c-117.5,114.7-260.1,181.6-422.3,205.9C982,1824,796.5,1792.4,624,1691.5c-4.9-2.9-11.7-4-13.6-10.9L610.1,1680.9z"/>
</g>
</svg>
