<?xml version="1.0" encoding="utf-8"?>
<!-- Generator: Adobe Illustrator 21.0.0, SVG Export Plug-In . SVG Version: 6.00 Build 0)  -->
<svg version="1.1" xmlns="http://www.w3.org/2000/svg" xmlns:xlink="http://www.w3.org/1999/xlink" x="0px" y="0px"
	 viewBox="0 0 2500 2500" style="enable-background:new 0 0 2500 2500;" xml:space="preserve">
<style type="text/css">
	.st0{fill:#FFFFFF;}
	.st1{fill:#4285F4;}
	.st2{fill:#34A853;}
	.st3{fill:#FBBC04;}
	.st4{fill:#EA4335;}
	.st5{fill:#C5221F;}
</style>
<g id="Layer_2">
	<g>
		<circle id="XMLID_13_" class="st0" cx="1250" cy="1250" r="1238.8"/>
	</g>
</g>
<g id="Layer_3">
	<g>
		<g>
			<path class="st1" d="M436.9,1956.3h299.6v-727.5l-427.9-321v920.1C308.5,1898.8,366,1956.3,436.9,1956.3L436.9,1956.3z"/>
			<path class="st2" d="M1763.5,1956.3h299.6c70.9,0,128.4-57.5,128.4-128.4V907.8l-427.9,321V1956.3z"/>
			<path class="st3" d="M1763.5,672.4v556.3l427.9-321V736.6c0-158.7-181.1-249.3-308.1-154.1L1763.5,672.4z"/>
		</g>
		<path class="st4" d="M736.5,1228.8V672.4l513.5,385.2l513.5-385.2v556.3L1250,1613.9L736.5,1228.8z"/>
		<path class="st5" d="M308.5,736.6v171.2l427.9,321V672.4l-119.8-89.9C489.6,487.4,308.5,578,308.5,736.6L308.5,736.6z"/>
	</g>
</g>
</svg>
