<svg width="97" height="95" viewBox="0 0 97 95" fill="none" xmlns="http://www.w3.org/2000/svg">
<rect width="97" height="95" fill="white"/>
<path fill-rule="evenodd" clip-rule="evenodd" d="M0 7.6962V15.3924H34.6253C71.9519 15.3924 70.1101 15.3924 72.0747 16.8354C72.443 17.1962 73.1797 17.9177 73.4253 18.3987C74.0392 19.481 74.0392 19.6013 74.0392 29.3418V39.2025H85.4582H97V19.7215V0H48.5H0V7.6962Z" fill="#375C8B"/>
<path fill-rule="evenodd" clip-rule="evenodd" d="M0 60.8483V95.0002H48.5H97V72.7534V50.3863H85.581H74.162V62.6521V74.9179L73.5481 76.1205C73.1797 76.842 72.3202 77.6838 71.5835 78.285L70.2329 79.2471H48.3772H26.7671L25.662 78.6458C25.0481 78.285 24.1886 77.5635 23.6975 76.9622L22.838 75.88L22.7152 59.766V43.6521L23.3291 42.4496C23.6975 41.7281 24.557 40.8863 25.1709 40.4053L26.3987 39.5635L44.5709 39.4433L62.743 39.323V32.9496V26.5762H31.4329H0V60.8483Z" fill="#375C8B"/>
<path fill-rule="evenodd" clip-rule="evenodd" d="M34.0115 59.285L34.1342 68.1837H48.3773H62.6203L62.7431 59.285V50.3862H48.3773H33.8887L34.0115 59.285Z" fill="#375C8B"/>
</svg>
