<svg width="429" height="202" viewBox="0 0 429 202" fill="none" xmlns="http://www.w3.org/2000/svg">
<path d="M118 1H1V116H118V1Z" fill="white"/>
<path d="M135.3 72.2976C137.074 70.6713 139.292 69.3407 141.806 68.4536C144.32 67.5665 146.982 66.9751 149.791 66.9751C151.713 66.9751 153.488 67.1229 155.114 67.5665C156.889 68.01 158.367 68.6014 159.698 69.4885C161.029 70.3756 162.064 71.5584 162.951 72.889C163.839 74.2197 164.134 75.846 164.134 77.768V93.2921C164.134 94.0313 164.134 94.6227 164.282 95.2141C164.43 95.6576 164.578 96.1012 164.726 96.3969C164.874 96.6926 165.169 96.8404 165.465 96.9883C165.761 97.1361 166.204 97.1361 166.648 97.1361C166.796 97.1361 167.092 97.1361 167.683 96.9883C168.127 96.9883 168.57 96.8404 169.014 96.6926L169.901 100.389C169.458 100.684 168.866 100.98 168.275 101.276C167.683 101.572 167.092 101.867 166.5 102.015C165.909 102.163 165.169 102.459 164.43 102.459C163.691 102.607 162.951 102.606 162.064 102.606C160.438 102.606 159.107 102.163 158.072 101.424C157.037 100.684 156.297 99.6495 156.002 98.171C155.114 99.0581 154.227 99.6496 153.192 100.241C152.157 100.832 151.27 101.276 150.235 101.572C149.2 101.867 148.312 102.163 147.277 102.311C146.242 102.459 145.355 102.459 144.468 102.459C142.841 102.459 141.51 102.311 140.18 101.867C138.997 101.424 137.814 100.832 136.926 100.093C136.039 99.3539 135.3 98.3189 134.856 97.1361C134.413 95.9534 134.117 94.4748 134.117 92.9964C134.117 91.2222 134.413 89.5959 135.004 88.2652C135.596 86.9346 136.335 85.7518 137.222 84.8647C138.109 83.9776 139.292 83.0906 140.623 82.4992C141.954 81.9078 143.433 81.3164 145.059 81.0207C146.686 80.725 148.312 80.4293 150.087 80.2814C151.861 80.1336 153.636 79.9857 155.41 79.9857V78.6551C155.41 77.4723 155.262 76.5852 154.966 75.6981C154.671 74.811 154.227 74.2197 153.636 73.6283C153.044 73.1847 152.453 72.7412 151.565 72.4455C150.826 72.1498 149.939 72.0019 148.904 72.0019C148.017 72.0019 147.277 72.0019 146.538 72.1498C145.799 72.2976 145.059 72.5933 144.32 72.889C143.581 73.1847 142.841 73.7761 141.954 74.3675C141.215 74.9589 140.327 75.6981 139.292 76.5852L135.3 72.2976ZM155.706 84.1255C153.192 84.2733 151.122 84.569 149.495 84.8647C147.869 85.3082 146.686 85.8997 145.651 86.491C144.763 87.2303 144.024 87.9695 143.728 89.0045C143.433 89.8916 143.137 90.9265 143.137 92.1093C143.137 92.9964 143.285 93.8834 143.433 94.4748C143.581 95.0662 144.024 95.6576 144.32 95.9533C144.763 96.3969 145.207 96.5447 145.799 96.8404C146.39 96.9883 146.982 97.1361 147.573 97.1361C148.164 97.1361 148.756 97.1361 149.495 96.9883C150.087 96.9883 150.826 96.8405 151.418 96.5448C152.157 96.3969 152.748 96.1012 153.488 95.8055C154.227 95.5098 154.819 95.0662 155.558 94.6227V84.1255H155.706Z" fill="white"/>
<path d="M186.907 94.6226L195.483 67.5664H204.651L190.603 102.459H183.21L168.867 67.5664H178.035L186.907 94.6226Z" fill="white"/>
<path d="M206.868 72.2976C208.642 70.6713 210.86 69.3407 213.374 68.4536C215.888 67.5665 218.55 66.9751 221.359 66.9751C223.281 66.9751 225.056 67.1229 226.682 67.5665C228.457 68.01 229.935 68.6014 231.266 69.4885C232.597 70.3756 233.632 71.5584 234.519 72.889C235.407 74.2197 235.702 75.846 235.702 77.768V93.292C235.702 94.0313 235.702 94.6227 235.85 95.214C235.998 95.6576 236.146 96.1012 236.294 96.3969C236.442 96.6926 236.737 96.8404 237.033 96.9882C237.329 97.1361 237.773 97.1361 238.216 97.1361C238.364 97.1361 238.66 97.1361 239.251 96.9882C239.695 96.9882 240.138 96.8404 240.582 96.6925L241.469 100.389C241.026 100.684 240.434 100.98 239.843 101.276C239.251 101.572 238.66 101.867 238.068 102.015C237.477 102.163 236.737 102.459 235.998 102.459C235.259 102.606 234.519 102.606 233.632 102.606C232.006 102.606 230.675 102.163 229.64 101.424C228.605 100.684 227.865 99.6495 227.57 98.171C226.682 99.0581 225.795 99.6495 224.76 100.241C223.725 100.832 222.838 101.276 221.803 101.572C220.768 101.867 219.88 102.163 218.845 102.311C217.81 102.459 216.923 102.459 216.036 102.459C214.409 102.459 213.078 102.311 211.748 101.867C210.565 101.424 209.382 100.832 208.495 100.093C207.607 99.3538 206.868 98.3189 206.424 97.1361C205.981 95.9533 205.685 94.4748 205.685 92.9963C205.685 91.2221 205.981 89.5958 206.572 88.2652C207.164 86.9346 207.903 85.7518 208.79 84.8647C209.677 83.9776 210.86 83.0905 212.191 82.4991C213.522 81.9078 215.001 81.3164 216.627 81.0207C218.254 80.725 219.88 80.4293 221.655 80.2814C223.429 80.1336 225.204 79.9857 226.978 79.9857V78.6551C226.978 77.4723 226.83 76.5852 226.535 75.6981C226.239 74.811 225.795 74.2197 225.204 73.6283C224.612 73.1847 224.021 72.7411 223.134 72.4454C222.394 72.1498 221.507 72.0019 220.472 72.0019C219.585 72.0019 218.845 72.0019 218.106 72.1498C217.367 72.2976 216.627 72.5933 215.888 72.889C215.149 73.1847 214.409 73.7761 213.522 74.3675C212.783 74.9589 211.896 75.6981 210.86 76.5852L206.868 72.2976ZM227.422 84.1254C224.908 84.2733 222.838 84.569 221.211 84.8647C219.585 85.3082 218.402 85.8996 217.367 86.491C216.479 87.2303 215.74 87.9695 215.444 89.0045C215.149 89.8915 214.853 90.9265 214.853 92.1093C214.853 92.9964 215.001 93.8834 215.149 94.4748C215.297 95.0662 215.74 95.6576 216.036 95.9533C216.479 96.3968 216.923 96.5447 217.515 96.8404C218.106 96.9882 218.697 97.1361 219.289 97.1361C219.88 97.1361 220.472 97.1361 221.211 96.9882C221.803 96.9882 222.542 96.8404 223.134 96.5447C223.873 96.3969 224.464 96.1012 225.204 95.8055C225.943 95.5098 226.535 95.0662 227.274 94.6227V84.1254H227.422Z" fill="white"/>
<path d="M274.444 96.3969C273.409 97.7275 272.374 98.9103 271.339 99.6496C270.304 100.537 269.121 101.128 267.938 101.572C266.755 102.015 265.424 102.311 264.241 102.459C262.91 102.607 261.727 102.754 260.397 102.754C257.291 102.754 254.63 102.311 252.412 101.276C250.194 100.241 248.419 98.9103 247.088 97.284C245.758 95.6577 244.723 93.7356 243.983 91.6657C243.392 89.5959 243.096 87.3782 243.096 85.1604C243.096 82.4992 243.54 80.1336 244.279 77.9159C245.018 75.6981 246.201 73.7761 247.68 72.1498C249.159 70.5235 251.081 69.1928 253.299 68.3057C255.517 67.4186 258.179 66.9751 261.136 66.9751C262.319 66.9751 263.502 66.9751 264.537 67.1229C265.572 67.2708 266.755 67.4186 267.79 67.7143C268.825 68.01 269.86 68.4536 270.747 69.045C271.635 69.6364 272.522 70.2277 273.409 71.1148L268.234 76.4374C267.642 75.846 267.051 75.2546 266.459 74.811C265.868 74.3675 265.424 73.924 264.833 73.6283C264.241 73.3326 263.65 73.1847 263.058 73.0368C262.467 72.889 261.727 72.889 260.84 72.889C259.362 72.889 258.031 73.1847 256.848 73.9239C255.665 74.6632 254.778 75.5503 254.038 76.5852C253.299 77.6202 252.855 78.9508 252.412 80.2815C252.116 81.6121 251.968 82.9427 251.968 84.2733C251.968 86.0475 252.116 87.6739 252.412 89.1524C252.707 90.6308 253.299 91.9614 254.038 93.1442C254.778 94.327 255.665 95.2141 256.848 95.8055C258.031 96.3969 259.362 96.8404 260.84 96.8404C261.58 96.8404 262.319 96.8404 262.91 96.6926C263.65 96.5447 264.241 96.249 264.833 95.9533C265.424 95.6576 266.163 95.0663 266.755 94.4749C267.346 93.8835 268.086 92.9964 268.677 92.1093L274.444 96.3969Z" fill="white"/>
<path d="M294.998 103.346C292.189 103.346 289.675 102.902 287.457 102.015C285.239 101.128 283.465 99.9452 281.986 98.3189C280.507 96.6925 279.324 94.7705 278.585 92.4049C277.846 90.0394 277.402 87.526 277.402 84.7169C277.402 82.3513 277.698 80.1336 278.437 77.9158C279.177 75.846 280.212 73.9239 281.69 72.2976C283.169 70.6713 284.943 69.3407 287.161 68.4536C289.379 67.5665 291.893 66.9751 294.851 66.9751C297.808 66.9751 300.322 67.4186 302.54 68.4536C304.61 69.3407 306.384 70.6713 307.863 72.2976C309.342 73.9239 310.229 75.846 310.968 78.0637C311.56 80.2814 312.003 82.647 312.003 85.1604C312.003 87.6738 311.56 90.0394 310.82 92.1093C310.081 94.327 308.898 96.249 307.567 97.8753C306.089 99.5017 304.314 100.832 302.244 101.719C300.174 102.606 297.66 103.346 294.998 103.346ZM294.703 97.4318C296.181 97.4318 297.364 96.9882 298.399 96.249C299.435 95.5098 300.322 94.4748 300.913 93.1442C301.653 91.8136 302.096 90.4829 302.392 88.8566C302.688 87.2303 302.836 85.604 302.836 83.9776C302.836 82.4991 302.688 81.0206 302.392 79.69C302.096 78.3594 301.653 77.1766 300.913 76.1417C300.174 75.1067 299.435 74.3675 298.399 73.7761C297.364 73.1847 296.034 72.889 294.555 72.889C293.224 72.889 292.041 73.1847 291.006 73.7761C289.971 74.3675 289.084 75.2546 288.344 76.2895C287.605 77.3244 287.161 78.6551 286.718 80.1336C286.422 81.612 286.126 83.2384 286.126 85.0125C286.126 86.491 286.274 87.8216 286.57 89.3001C286.866 90.7786 287.309 92.1093 288.049 93.292C288.788 94.4748 289.527 95.5098 290.71 96.249C292.041 97.1361 293.224 97.4318 294.703 97.4318Z" fill="white"/>
<path d="M324.868 67.5661C325.016 67.8618 325.163 68.4532 325.311 69.0446C325.459 69.636 325.607 70.2274 325.607 70.8188C326.198 70.3752 326.79 69.9317 327.529 69.4881C328.269 69.0446 329.156 68.6011 330.043 68.3054C330.93 68.0097 331.965 67.714 333 67.4183C334.036 67.2704 335.071 67.1226 336.106 67.1226C338.028 67.1226 339.802 67.4183 341.281 68.1575C342.76 68.8968 343.943 69.7838 344.83 70.8188C345.865 70.0795 346.752 69.636 347.639 69.1925C348.527 68.7489 349.562 68.3054 350.449 68.0097C351.336 67.714 352.371 67.5661 353.258 67.4183C354.294 67.2704 355.329 67.2704 356.364 67.2704C358.286 67.2704 359.913 67.5661 361.243 68.1575C362.574 68.7489 363.609 69.4881 364.497 70.3752C365.384 71.2623 365.975 72.4451 366.419 73.7757C366.862 75.1064 367.01 76.437 367.01 77.9155V102.754H358.582V80.2811C358.582 78.9504 358.434 77.9155 358.138 77.0284C357.842 76.1413 357.547 75.5499 356.955 74.9585C356.512 74.515 355.772 74.0714 355.033 73.9236C354.294 73.7757 353.406 73.6279 352.519 73.6279C351.484 73.6279 350.449 73.7757 349.562 73.9236C348.527 74.0714 347.492 74.515 346.309 74.9585C346.456 75.4021 346.604 75.9935 346.752 76.5849C346.9 77.1763 346.9 77.9155 346.9 78.8026V102.606H338.472V80.1332C338.472 78.8026 338.324 77.7676 338.028 76.8805C337.732 75.9935 337.437 75.4021 336.845 74.8107C336.401 74.3671 335.662 73.9236 335.071 73.7757C334.331 73.6279 333.444 73.4801 332.557 73.4801C331.226 73.4801 330.191 73.6279 329.156 73.9236C328.121 74.2193 327.234 74.6628 326.198 75.2542V102.606H317.77V71.8537C317.77 71.1145 317.77 70.3752 317.77 69.636C317.77 68.8968 317.622 68.3054 317.622 67.714H324.868V67.5661Z" fill="white"/>
<path d="M381.649 67.5665C381.797 67.8622 381.945 68.3057 382.093 68.8971C382.241 69.4885 382.389 70.0799 382.389 70.6713C382.832 70.2278 383.424 69.7842 384.015 69.3406C384.607 68.8971 385.198 68.4536 385.938 68.1579C386.677 67.8622 387.416 67.5665 388.303 67.2708C389.191 66.9751 390.226 66.9751 391.261 66.9751C394.07 66.9751 396.436 67.4186 398.358 68.4536C400.281 69.4885 401.759 70.6713 402.942 72.2976C404.125 73.9239 404.865 75.846 405.308 77.9158C405.752 79.9857 406.048 82.2034 406.048 84.569C406.048 87.0824 405.752 89.448 405.013 91.6657C404.421 93.8834 403.386 95.9533 402.055 97.7275C400.724 99.5016 399.098 100.832 397.028 101.867C394.957 102.902 392.592 103.346 389.93 103.346C387.268 103.346 384.755 102.459 382.684 100.832V117.096H374.256V74.2196C374.256 74.0718 374.256 73.7761 374.256 73.1847C374.256 72.7411 374.256 72.1498 374.256 71.4105C374.256 70.8191 374.108 70.0799 374.108 69.3406C373.96 68.6014 373.96 68.01 373.812 67.5665H381.649V67.5665ZM389.338 73.3325C388.156 73.3325 387.12 73.4804 386.085 73.7761C385.05 74.0718 383.867 74.5153 382.832 75.1067V95.0662C383.424 95.5098 384.015 95.9533 384.607 96.1011C385.198 96.3968 385.79 96.5447 386.381 96.6925C386.973 96.8404 387.564 96.8404 388.156 96.9882C388.747 97.1361 389.338 96.9882 390.078 96.9882C391.409 96.9882 392.444 96.6925 393.331 95.9533C394.218 95.214 394.957 94.327 395.549 93.1442C396.14 91.9614 396.584 90.6308 396.88 89.1523C397.176 87.6738 397.323 86.0475 397.323 84.569C397.323 82.9427 397.176 81.4642 396.88 80.1336C396.584 78.8029 396.14 77.6202 395.549 76.5852C394.957 75.5503 394.07 74.811 393.183 74.2196C392.296 73.6282 390.669 73.3325 389.338 73.3325Z" fill="white"/>
<path fill-rule="evenodd" clip-rule="evenodd" d="M1.03491 9.75798V19.2203H42.7339C87.6861 19.2203 85.468 19.2203 87.8339 20.9945C88.2775 21.438 89.1647 22.3251 89.4605 22.9165C90.1998 24.2471 90.1998 24.3949 90.1998 36.3706V48.4942H103.952H117.703V24.2471V0H59.4431H1.03491V9.75798Z" fill="#375C8C"/>
<path fill-rule="evenodd" clip-rule="evenodd" d="M1.03467 74.9591V116.948H59.4428H117.851V89.596V62.2441H104.099H90.1995V77.3247V92.4051L89.4602 93.8836C89.0166 94.7707 87.9815 95.8057 87.0943 96.5449L85.4677 97.7277H59.295H33.2701L31.9392 96.9884C31.1999 96.5449 30.1648 95.6578 29.5733 94.9186L28.5383 93.588L28.3904 73.7763V53.9646L29.1297 52.4861C29.5733 51.5991 30.6084 50.5641 31.3478 49.9728L32.8265 48.9378L54.711 48.7899L76.5956 48.6421V40.8061V32.9702H38.8891H1.03467V74.9591Z" fill="#375C8C"/>
<path fill-rule="evenodd" clip-rule="evenodd" d="M41.9941 73.1844L42.1419 83.9773H59.2947H76.4475L76.5954 73.1844V62.2437H59.2947H41.8462L41.9941 73.1844Z" fill="#375C8C"/>
<g clip-path="url(#clip0)">
<path d="M285 129.846H201.183V200.633H285V129.846Z" fill="#375C8B"/>
<path d="M356.464 129.622H290.072V200.409H356.464V129.622Z" fill="#375C8B"/>
<path d="M428.81 130.219H362.419V201.006H428.81V130.219Z" fill="#375C8B"/>
<path d="M267.794 176.018C266.692 177.435 265.589 178.554 264.633 179.524C263.677 180.493 262.648 181.239 261.545 181.761C260.442 182.358 259.266 182.731 258.016 183.029C256.766 183.253 255.295 183.402 253.604 183.402C251.693 183.402 249.928 182.88 248.458 181.836C246.987 180.792 245.737 179.524 244.708 177.957C243.679 176.391 242.944 174.75 242.429 172.96C241.914 171.169 241.62 169.528 241.62 168.111H273.162C273.382 166.694 273.603 165.351 273.676 164.009C273.75 162.666 273.823 161.398 273.823 160.205C273.823 156.997 273.382 154.088 272.5 151.477C271.618 148.867 270.221 146.629 268.456 144.839C266.692 142.974 264.412 141.631 261.766 140.587C259.119 139.617 255.957 139.095 252.428 139.095C248.458 139.095 245.002 139.841 242.061 141.258C239.12 142.676 236.694 144.54 234.709 146.927C232.797 149.314 231.327 152.074 230.371 155.132C229.856 156.922 229.489 158.713 229.195 160.503H201.109V168.037H228.901C229.121 170.498 229.489 172.81 230.151 175.123C231.033 178.405 232.503 181.314 234.415 183.85C236.326 186.386 238.9 188.4 241.914 189.892C245.002 191.384 248.678 192.204 252.943 192.204C254.928 192.204 256.839 192.13 258.678 191.906C260.516 191.682 262.354 191.234 264.118 190.563C265.883 189.892 267.647 188.922 269.485 187.654C271.25 186.386 273.162 184.745 275.073 182.656L267.794 176.018ZM242.135 155.953C242.429 154.536 242.944 153.193 243.752 152.074C244.488 150.955 245.517 149.986 246.767 149.314C248.017 148.643 249.634 148.27 251.619 148.27C253.678 148.27 255.369 148.643 256.619 149.463C257.869 150.209 258.825 151.254 259.413 152.372C260.074 153.566 260.516 154.834 260.663 156.326C260.883 157.743 260.957 159.16 260.957 160.503H241.62C241.62 158.862 241.767 157.37 242.135 155.953Z" fill="white"/>
<path d="M317.57 139.767C318.231 143.123 318.672 146.555 318.967 149.986C319.555 148.569 320.437 147.226 321.54 145.883C322.643 144.541 323.893 143.347 325.29 142.377C326.686 141.333 328.083 140.513 329.627 139.916C331.171 139.319 332.568 138.946 333.965 138.946C335.656 138.946 336.98 139.095 337.788 139.245C338.597 139.468 339.332 139.692 339.774 139.916L337.127 151.105C336.097 150.657 335.215 150.284 334.333 150.135C333.451 149.986 332.642 149.911 331.76 149.911C328.892 149.911 326.392 150.583 324.334 152C322.275 153.417 320.584 155.207 319.261 157.519L319.334 200.782H307.056V148.419C307.056 147.897 307.056 147.226 307.056 146.405C307.056 145.585 307.056 144.764 306.982 143.869C306.982 143.049 306.909 142.228 306.909 141.482C306.835 140.736 306.835 140.214 306.762 139.767H317.57V139.767Z" fill="white"/>
<path d="M384.255 139.542C384.476 139.99 384.623 140.661 384.843 141.556C385.064 142.451 385.211 143.272 385.285 144.092C386.02 143.421 386.829 142.75 387.637 142.153C388.446 141.482 389.402 140.96 390.431 140.437C391.461 139.915 392.637 139.542 393.887 139.244C395.137 138.946 396.607 138.796 398.151 138.796C402.195 138.796 405.577 139.542 408.371 140.96C411.091 142.377 413.297 144.316 414.914 146.628C416.532 149.015 417.708 151.701 418.444 154.833C419.179 157.966 419.473 161.174 419.473 164.53C419.473 168.185 419.032 171.691 418.076 174.973C417.12 178.33 415.723 181.239 413.812 183.775C411.9 186.311 409.474 188.325 406.533 189.891C403.592 191.383 400.21 192.204 396.24 192.204C392.269 192.204 388.74 191.01 385.726 188.549V201.155H373.594V149.239C373.594 149.015 373.594 148.568 373.594 147.822C373.594 147.076 373.521 146.181 373.521 145.211C373.447 144.242 373.374 143.272 373.3 142.228C373.227 141.183 373.006 140.288 372.786 139.542H384.255V139.542ZM395.284 148.046C393.666 148.046 392.049 148.269 390.505 148.642C388.961 149.015 387.417 149.687 385.726 150.582V179.896C386.534 180.567 387.417 181.164 388.226 181.537C389.034 181.91 389.917 182.208 390.725 182.358C391.608 182.581 392.49 182.656 393.372 182.656C394.254 182.656 395.137 182.731 396.093 182.731C397.931 182.731 399.548 182.208 400.872 181.164C402.195 180.12 403.298 178.703 404.107 176.987C404.915 175.271 405.577 173.257 405.945 171.02C406.386 168.782 406.533 166.544 406.533 164.232C406.533 161.92 406.312 159.757 405.871 157.743C405.43 155.729 404.768 154.013 403.886 152.596C403.004 151.179 401.827 150.06 400.357 149.239C399.033 148.419 397.269 148.046 395.284 148.046Z" fill="white"/>
</g>
<defs>
<clipPath id="clip0">
<rect width="227.701" height="71.4583" fill="white" transform="translate(201.109 129.622)"/>
</clipPath>
</defs>
</svg>
