<svg width="301" height="261" viewBox="0 0 301 261" fill="none" xmlns="http://www.w3.org/2000/svg">
<rect x="74" y="1" width="110" height="110" fill="white"/>
<g clip-path="url(#clip0)">
<path d="M153.843 188.229H68.0762V260.543H153.843V188.229Z" fill="#375C8B"/>
<path d="M226.97 188H159.033V260.314H226.97V188Z" fill="#375C8B"/>
<path d="M301 188.609H233.063V260.924H301V188.609Z" fill="#375C8B"/>
<path d="M136.237 235.397C135.109 236.845 133.98 237.988 133.002 238.978C132.024 239.969 130.971 240.731 129.842 241.264C128.714 241.874 127.51 242.255 126.231 242.56C124.952 242.788 123.448 242.941 121.717 242.941C119.761 242.941 117.955 242.407 116.451 241.341C114.946 240.274 113.667 238.978 112.614 237.378C111.561 235.778 110.808 234.102 110.282 232.273C109.755 230.444 109.454 228.767 109.454 227.32H141.729C141.955 225.872 142.181 224.5 142.256 223.129C142.331 221.757 142.407 220.462 142.407 219.242C142.407 215.966 141.955 212.994 141.052 210.327C140.15 207.66 138.72 205.374 136.914 203.545C135.109 201.64 132.777 200.269 130.068 199.202C127.36 198.211 124.125 197.678 120.513 197.678C116.451 197.678 112.915 198.44 109.905 199.888C106.896 201.335 104.413 203.24 102.382 205.679C100.426 208.117 98.9212 210.937 97.9432 214.061C97.4165 215.89 97.0404 217.718 96.7394 219.547H68V227.243H96.4385C96.6642 229.758 97.0404 232.12 97.7175 234.483C98.6203 237.835 100.125 240.807 102.081 243.398C104.037 245.989 106.67 248.046 109.755 249.57C112.915 251.094 116.676 251.932 121.04 251.932C123.071 251.932 125.027 251.856 126.908 251.628C128.789 251.399 130.67 250.942 132.476 250.256C134.281 249.57 136.087 248.58 137.968 247.284C139.773 245.989 141.729 244.312 143.686 242.179L136.237 235.397ZM109.981 214.899C110.282 213.451 110.808 212.08 111.636 210.937C112.388 209.794 113.441 208.803 114.72 208.117C115.999 207.431 117.655 207.05 119.686 207.05C121.792 207.05 123.523 207.431 124.802 208.27C126.081 209.032 127.059 210.098 127.661 211.241C128.338 212.461 128.789 213.756 128.94 215.28C129.165 216.728 129.241 218.176 129.241 219.547H109.454C109.454 217.871 109.604 216.347 109.981 214.899Z" fill="white"/>
<path d="M187.171 198.364C187.848 201.793 188.299 205.298 188.6 208.803C189.202 207.355 190.105 205.984 191.233 204.612C192.362 203.24 193.641 202.021 195.07 201.031C196.5 199.964 197.929 199.126 199.509 198.516C201.089 197.906 202.519 197.525 203.948 197.525C205.678 197.525 207.033 197.678 207.86 197.83C208.688 198.059 209.44 198.287 209.891 198.516L207.183 209.946C206.13 209.489 205.227 209.108 204.324 208.955C203.421 208.803 202.594 208.727 201.691 208.727C198.757 208.727 196.199 209.413 194.092 210.86C191.986 212.308 190.255 214.137 188.901 216.499L188.976 260.696H176.412V207.203C176.412 206.669 176.412 205.984 176.412 205.145C176.412 204.307 176.412 203.469 176.337 202.555C176.337 201.716 176.262 200.878 176.262 200.116C176.187 199.354 176.187 198.821 176.111 198.364H187.171V198.364Z" fill="white"/>
<path d="M255.408 198.135C255.634 198.592 255.785 199.278 256.01 200.192C256.236 201.107 256.386 201.945 256.462 202.783C257.214 202.097 258.042 201.412 258.869 200.802C259.697 200.116 260.675 199.583 261.728 199.049C262.781 198.516 263.985 198.135 265.264 197.83C266.543 197.525 268.048 197.373 269.628 197.373C273.766 197.373 277.226 198.135 280.085 199.583C282.869 201.031 285.126 203.012 286.781 205.374C288.436 207.813 289.64 210.556 290.392 213.756C291.145 216.957 291.446 220.233 291.446 223.662C291.446 227.396 290.994 230.977 290.016 234.33C289.038 237.759 287.609 240.731 285.653 243.322C283.696 245.913 281.214 247.97 278.204 249.57C275.195 251.094 271.734 251.933 267.672 251.933C263.609 251.933 259.998 250.713 256.913 248.199V261.077H244.499V208.041C244.499 207.813 244.499 207.355 244.499 206.593C244.499 205.831 244.424 204.917 244.424 203.926C244.349 202.936 244.274 201.945 244.199 200.878C244.123 199.811 243.898 198.897 243.672 198.135H255.408V198.135ZM266.694 206.822C265.038 206.822 263.383 207.051 261.803 207.432C260.223 207.813 258.643 208.498 256.913 209.413V239.359C257.741 240.045 258.643 240.655 259.471 241.036C260.299 241.417 261.201 241.722 262.029 241.874C262.932 242.103 263.835 242.179 264.737 242.179C265.64 242.179 266.543 242.255 267.521 242.255C269.402 242.255 271.057 241.722 272.411 240.655C273.766 239.588 274.894 238.14 275.722 236.388C276.549 234.635 277.226 232.578 277.602 230.292C278.054 228.006 278.204 225.72 278.204 223.357C278.204 220.995 277.979 218.785 277.527 216.728C277.076 214.671 276.399 212.918 275.496 211.47C274.593 210.022 273.389 208.879 271.885 208.041C270.53 207.203 268.725 206.822 266.694 206.822Z" fill="white"/>
</g>
<g opacity="0.81">
<path opacity="0.81" d="M1.12233 142.118C2.80586 140.575 4.91025 139.312 7.29525 138.47C9.68024 137.629 12.2056 137.067 14.8711 137.067C16.695 137.067 18.3784 137.208 19.9217 137.629C21.6052 138.049 23.0081 138.611 24.2708 139.452C25.5334 140.294 26.5155 141.416 27.3573 142.679C28.199 143.942 28.4796 145.485 28.4796 147.309V162.04C28.4796 162.741 28.4796 163.302 28.6199 163.863C28.7602 164.284 28.9005 164.705 29.0408 164.986C29.1811 165.266 29.4616 165.407 29.7422 165.547C30.0228 165.687 30.4437 165.687 30.8646 165.687C31.0049 165.687 31.2855 165.687 31.8466 165.547C32.2675 165.547 32.6884 165.407 33.1093 165.266L33.951 168.774C33.5302 169.054 32.969 169.335 32.4078 169.616C31.8467 169.896 31.2855 170.177 30.7243 170.317C30.1631 170.457 29.4617 170.738 28.7602 170.738C28.0587 170.878 27.3573 170.878 26.5155 170.878C24.9723 170.878 23.7096 170.457 22.7275 169.756C21.7455 169.054 21.044 168.072 20.7634 166.669C19.9217 167.511 19.0799 168.072 18.0979 168.633C17.1158 169.195 16.2741 169.616 15.292 169.896C14.3099 170.177 13.4682 170.457 12.4861 170.598C11.5041 170.738 10.6623 170.738 9.82056 170.738C8.27733 170.738 7.01469 170.598 5.75205 170.177C4.6297 169.756 3.50733 169.195 2.66557 168.493C1.82381 167.792 1.12235 166.81 0.701468 165.687C0.280587 164.565 0 163.162 0 161.759C0 160.076 0.280596 158.532 0.841771 157.27C1.40295 156.007 2.10441 154.885 2.94618 154.043C3.78794 153.201 4.91027 152.359 6.17291 151.798C7.43556 151.237 8.83849 150.676 10.3817 150.395C11.925 150.115 13.4682 149.834 15.1517 149.694C16.8352 149.554 18.5188 149.413 20.2023 149.413V148.151C20.2023 147.028 20.062 146.186 19.7814 145.345C19.5008 144.503 19.0799 143.942 18.5187 143.381C17.9576 142.96 17.3964 142.539 16.5546 142.258C15.8532 141.978 15.0114 141.837 14.0294 141.837C13.1876 141.837 12.4861 141.837 11.7847 141.978C11.0832 142.118 10.3817 142.399 9.68025 142.679C8.97879 142.96 8.27731 143.521 7.43555 144.082C6.73408 144.643 5.89233 145.345 4.91028 146.186L1.12233 142.118ZM20.4829 153.341C18.0979 153.482 16.1338 153.762 14.5905 154.043C13.0473 154.464 11.9249 155.025 10.9429 155.586C10.1011 156.288 9.39968 156.989 9.11909 157.971C8.8385 158.813 8.55792 159.795 8.55792 160.917C8.55792 161.759 8.69819 162.601 8.83848 163.162C8.97878 163.723 9.39967 164.284 9.68025 164.565C10.1011 164.986 10.522 165.126 11.0832 165.407C11.6444 165.547 12.2056 165.687 12.7667 165.687C13.3279 165.687 13.8891 165.687 14.5905 165.547C15.1517 165.547 15.8532 165.407 16.4143 165.126C17.1158 164.986 17.677 164.705 18.3785 164.425C19.0799 164.144 19.6411 163.723 20.3426 163.302V153.341H20.4829Z" fill="black"/>
<path opacity="0.81" d="M50.0846 163.302L58.2216 137.628H66.9198L53.5919 170.737H46.5772L32.9688 137.628H41.6669L50.0846 163.302Z" fill="black"/>
<path opacity="0.81" d="M69.0247 142.118C70.7082 140.575 72.8126 139.312 75.1976 138.47C77.5826 137.629 80.1079 137.067 82.7735 137.067C84.5973 137.067 86.2808 137.208 87.8241 137.629C89.5076 138.049 90.9105 138.611 92.1731 139.452C93.4358 140.294 94.4178 141.416 95.2596 142.679C96.1014 143.942 96.3819 145.485 96.3819 147.309V162.04C96.3819 162.741 96.382 163.302 96.5222 163.863C96.6625 164.284 96.8029 164.705 96.9432 164.986C97.0834 165.266 97.364 165.407 97.6446 165.547C97.9252 165.687 98.3461 165.687 98.767 165.687C98.9072 165.687 99.1878 165.687 99.749 165.547C100.17 165.547 100.591 165.407 101.012 165.266L101.853 168.774C101.433 169.054 100.871 169.335 100.31 169.616C99.749 169.896 99.1878 170.177 98.6266 170.317C98.0655 170.457 97.364 170.738 96.6625 170.738C95.9611 170.878 95.2596 170.878 94.4178 170.878C92.8746 170.878 91.612 170.457 90.6299 169.756C89.6479 169.054 88.9464 168.072 88.6658 166.669C87.824 167.511 86.9823 168.072 86.0002 168.633C85.0182 169.195 84.1764 169.616 83.1943 169.896C82.2123 170.177 81.3705 170.457 80.3885 170.598C79.4064 170.738 78.5647 170.738 77.7229 170.738C76.1797 170.738 74.917 170.598 73.6544 170.177C72.532 169.756 71.4097 169.195 70.5679 168.493C69.7262 167.792 69.0247 166.81 68.6038 165.687C68.1829 164.565 67.9023 163.162 67.9023 161.759C67.9023 160.076 68.1829 158.532 68.7441 157.27C69.3053 156.007 70.0068 154.885 70.8485 154.043C71.6903 153.201 72.8126 152.359 74.0753 151.798C75.3379 151.237 76.7408 150.676 78.2841 150.395C79.8273 150.115 81.3705 149.834 83.054 149.694C84.7376 149.554 86.4211 149.413 88.1046 149.413V148.151C88.1046 147.028 87.9643 146.186 87.6838 145.345C87.4032 144.503 86.9823 143.942 86.4211 143.381C85.86 142.96 85.2987 142.539 84.457 142.258C83.7555 141.978 82.9138 141.837 81.9317 141.837C81.0899 141.837 80.3885 141.837 79.687 141.978C78.9855 142.118 78.2841 142.399 77.5826 142.679C76.8811 142.96 76.1797 143.521 75.3379 144.082C74.6364 144.643 73.7947 145.345 72.8126 146.186L69.0247 142.118ZM88.5255 153.341C86.1405 153.482 84.1764 153.762 82.6332 154.043C81.0899 154.464 79.9676 155.025 78.9855 155.586C78.1438 156.288 77.4423 156.989 77.1617 157.971C76.8811 158.813 76.6006 159.795 76.6006 160.917C76.6006 161.759 76.7408 162.601 76.8811 163.162C77.0214 163.723 77.4423 164.284 77.7229 164.565C78.1438 164.986 78.5647 165.126 79.1258 165.407C79.687 165.547 80.2482 165.687 80.8094 165.687C81.3706 165.687 81.9317 165.687 82.6332 165.547C83.1944 165.547 83.8958 165.407 84.457 165.126C85.1584 164.986 85.7197 164.705 86.4211 164.425C87.1226 164.144 87.6838 163.723 88.3852 163.302V153.341H88.5255Z" fill="black"/>
<path opacity="0.81" d="M133.139 164.986C132.157 166.248 131.175 167.371 130.193 168.072C129.211 168.914 128.088 169.475 126.966 169.896C125.843 170.317 124.581 170.598 123.459 170.738C122.196 170.878 121.074 171.018 119.811 171.018C116.865 171.018 114.339 170.598 112.235 169.616C110.131 168.633 108.447 167.371 107.184 165.828C105.922 164.284 104.94 162.461 104.238 160.496C103.677 158.532 103.396 156.428 103.396 154.323C103.396 151.798 103.817 149.554 104.519 147.449C105.22 145.345 106.343 143.521 107.746 141.978C109.149 140.434 110.972 139.172 113.077 138.33C115.181 137.488 117.706 137.067 120.512 137.067C121.635 137.067 122.757 137.067 123.739 137.208C124.721 137.348 125.843 137.488 126.826 137.769C127.808 138.049 128.79 138.47 129.631 139.031C130.473 139.593 131.315 140.154 132.157 140.996L127.246 146.046C126.685 145.485 126.124 144.924 125.563 144.503C125.002 144.082 124.581 143.661 124.02 143.381C123.458 143.1 122.897 142.96 122.336 142.819C121.775 142.679 121.073 142.679 120.232 142.679C118.829 142.679 117.566 142.96 116.444 143.661C115.321 144.363 114.48 145.204 113.778 146.186C113.077 147.169 112.656 148.431 112.235 149.694C111.954 150.956 111.814 152.219 111.814 153.482C111.814 155.165 111.954 156.708 112.235 158.111C112.516 159.514 113.077 160.777 113.778 161.899C114.48 163.022 115.321 163.863 116.444 164.425C117.566 164.986 118.829 165.407 120.232 165.407C120.933 165.407 121.635 165.407 122.196 165.266C122.897 165.126 123.458 164.846 124.02 164.565C124.581 164.284 125.282 163.723 125.843 163.162C126.405 162.601 127.106 161.759 127.667 160.917L133.139 164.986Z" fill="black"/>
<path opacity="0.81" d="M152.639 171.439C149.974 171.439 147.589 171.018 145.484 170.176C143.38 169.335 141.696 168.212 140.293 166.669C138.891 165.126 137.768 163.302 137.067 161.057C136.365 158.813 135.944 156.428 135.944 153.762C135.944 151.517 136.225 149.413 136.926 147.308C137.628 145.344 138.61 143.521 140.013 141.977C141.416 140.434 143.099 139.171 145.204 138.33C147.308 137.488 149.693 136.927 152.499 136.927C155.305 136.927 157.69 137.348 159.794 138.33C161.758 139.171 163.442 140.434 164.845 141.977C166.248 143.521 167.09 145.344 167.791 147.449C168.352 149.553 168.773 151.798 168.773 154.183C168.773 156.568 168.352 158.813 167.651 160.777C166.949 162.881 165.827 164.705 164.564 166.248C163.161 167.791 161.478 169.054 159.514 169.896C157.55 170.738 155.165 171.439 152.639 171.439ZM152.359 165.968C153.762 165.968 154.884 165.547 155.866 164.845C156.848 164.144 157.69 163.162 158.251 161.899C158.952 160.636 159.373 159.374 159.654 157.831C159.935 156.287 160.075 154.744 160.075 153.201C160.075 151.798 159.935 150.395 159.654 149.132C159.373 147.87 158.952 146.747 158.251 145.765C157.55 144.783 156.848 144.082 155.866 143.521C154.884 142.959 153.621 142.679 152.218 142.679C150.956 142.679 149.833 142.959 148.851 143.521C147.869 144.082 147.028 144.923 146.326 145.906C145.625 146.888 145.204 148.15 144.783 149.553C144.502 150.956 144.222 152.499 144.222 154.183C144.222 155.586 144.362 156.848 144.643 158.251C144.923 159.654 145.344 160.917 146.045 162.039C146.747 163.162 147.448 164.144 148.571 164.845C149.833 165.687 150.956 165.968 152.359 165.968Z" fill="black"/>
<path opacity="0.81" d="M180.979 137.629C181.119 137.909 181.259 138.471 181.4 139.032C181.54 139.593 181.68 140.154 181.68 140.715C182.242 140.294 182.803 139.874 183.504 139.453C184.206 139.032 185.047 138.611 185.889 138.33C186.731 138.05 187.713 137.769 188.695 137.489C189.677 137.348 190.659 137.208 191.641 137.208C193.465 137.208 195.149 137.489 196.551 138.19C197.954 138.892 199.077 139.733 199.919 140.715C200.901 140.014 201.742 139.593 202.584 139.172C203.426 138.751 204.408 138.33 205.25 138.05C206.091 137.769 207.073 137.629 207.915 137.489C208.897 137.348 209.879 137.348 210.861 137.348C212.685 137.348 214.228 137.629 215.491 138.19C216.754 138.751 217.736 139.453 218.578 140.294C219.419 141.136 219.981 142.259 220.401 143.521C220.822 144.784 220.963 146.047 220.963 147.449V171.019H212.966V149.694C212.966 148.432 212.826 147.449 212.545 146.608C212.264 145.766 211.984 145.205 211.423 144.644C211.002 144.223 210.3 143.802 209.599 143.662C208.897 143.521 208.056 143.381 207.214 143.381C206.232 143.381 205.25 143.521 204.408 143.662C203.426 143.802 202.444 144.223 201.321 144.644C201.462 145.064 201.602 145.626 201.742 146.187C201.883 146.748 201.883 147.449 201.883 148.291V170.878H193.886V149.554C193.886 148.291 193.746 147.309 193.465 146.467C193.184 145.626 192.904 145.064 192.343 144.503C191.922 144.082 191.22 143.662 190.659 143.521C189.958 143.381 189.116 143.241 188.274 143.241C187.011 143.241 186.029 143.381 185.047 143.662C184.065 143.942 183.224 144.363 182.242 144.924V170.878H174.245V141.417C174.245 140.715 174.245 140.014 174.245 139.312C174.245 138.611 174.104 138.05 174.104 137.489H180.979V137.629Z" fill="black"/>
<path opacity="0.81" d="M234.852 137.629C234.992 137.909 235.132 138.33 235.272 138.891C235.413 139.452 235.553 140.014 235.553 140.575C235.974 140.154 236.535 139.733 237.096 139.312C237.657 138.891 238.219 138.47 238.92 138.19C239.622 137.909 240.323 137.629 241.165 137.348C242.007 137.067 242.989 137.067 243.971 137.067C246.636 137.067 248.881 137.488 250.705 138.47C252.529 139.452 253.932 140.575 255.054 142.118C256.176 143.661 256.878 145.485 257.299 147.449C257.719 149.413 258 151.518 258 153.762C258 156.147 257.719 158.392 257.018 160.496C256.457 162.601 255.475 164.565 254.212 166.248C252.949 167.932 251.406 169.195 249.442 170.177C247.478 171.159 245.233 171.58 242.708 171.58C240.183 171.58 237.798 170.738 235.834 169.195V184.627H227.837V143.942C227.837 143.801 227.837 143.521 227.837 142.96C227.837 142.539 227.837 141.978 227.837 141.276C227.837 140.715 227.697 140.014 227.697 139.312C227.556 138.611 227.556 138.049 227.416 137.629H234.852V137.629ZM242.147 143.1C241.025 143.1 240.042 143.24 239.06 143.521C238.078 143.801 236.956 144.222 235.974 144.784V163.723C236.535 164.144 237.096 164.565 237.657 164.705C238.219 164.986 238.78 165.126 239.341 165.266C239.902 165.407 240.463 165.407 241.024 165.547C241.586 165.687 242.147 165.547 242.848 165.547C244.111 165.547 245.093 165.266 245.935 164.565C246.777 163.863 247.478 163.022 248.039 161.899C248.6 160.777 249.021 159.514 249.302 158.111C249.582 156.708 249.723 155.165 249.723 153.762C249.723 152.219 249.582 150.816 249.302 149.554C249.021 148.291 248.6 147.169 248.039 146.186C247.478 145.204 246.636 144.503 245.794 143.942C244.953 143.381 243.409 143.1 242.147 143.1Z" fill="black"/>
</g>
<path fill-rule="evenodd" clip-rule="evenodd" d="M73.654 9.11909V18.0979H113.217C155.866 18.0979 153.762 18.0979 156.006 19.7814C156.427 20.2023 157.269 21.0441 157.55 21.6052C158.251 22.8679 158.251 23.0082 158.251 34.372V45.876H171.298H184.346V23.0082V0H128.93H73.5137V9.11909H73.654Z" fill="#375C8C"/>
<path fill-rule="evenodd" clip-rule="evenodd" d="M73.6543 70.9889V110.832H129.07H184.486V84.878V58.9237H171.439H158.392V73.2336V87.5436L157.69 88.9465C157.269 89.7883 156.287 90.7703 155.445 91.4718L153.902 92.5941H129.07H104.379L103.116 91.8927C102.414 91.4718 101.432 90.63 100.871 89.9286L99.8892 88.6659L99.7489 69.8666V51.0672L100.45 49.6643C100.871 48.8225 101.853 47.8405 102.555 47.2793L103.958 46.2972L124.721 46.1569L145.485 46.0166V38.5811V31.1455H109.569H73.6543V70.9889V70.9889Z" fill="#375C8C"/>
<path fill-rule="evenodd" clip-rule="evenodd" d="M112.516 69.1643L112.656 79.546H128.93H145.344V69.1643L145.485 58.9229H128.93H112.516V69.1643Z" fill="#375C8C"/>
<defs>
<clipPath id="clip0">
<rect width="233" height="73" fill="white" transform="translate(68 188)"/>
</clipPath>
</defs>
</svg>
